<?xml version="1.0" encoding="utf-8"?>
<svg width="600pt" height="600.000000pt" viewBox="0 0 600.000000 600.000000" preserveAspectRatio="xMidYMid meet" xmlns="http://www.w3.org/2000/svg">
  <ellipse transform="matrix(-0.692544, 0.721376, -0.721381, -0.692536, 388.567964, 144.616233)" cx="145.705" cy="70.442" rx="5.178" ry="5.177" style="fill: rgb(27, 30, 35);"/>
  <path d="M 230.168 7.143 C 214.638 11.324 202.243 21.927 195.822 36.413 C 194.178 40.146 192.238 49.405 191.341 57.17 C 188.803 80.316 183.725 117.352 182.979 118.546 C 182.531 119.143 179.694 119.741 176.706 119.741 C 173.571 119.741 162.67 120.786 152.515 121.981 C 105.325 127.655 89.048 134.674 96.365 145.874 C 97.859 148.114 101.443 150.952 104.429 152.146 C 112.642 155.581 133.251 159.463 154.605 161.704 L 173.571 163.644 L 172.376 168.274 C 169.539 179.624 172.376 190.227 182.381 205.757 L 188.355 214.717 L 188.355 236.072 C 188.355 268.924 193.73 284.306 211.95 303.57 C 220.461 312.679 221.209 314.024 221.209 320.146 C 221.209 328.061 222.552 327.463 196.718 330.451 C 183.277 332.093 180.888 332.69 181.784 334.632 C 184.024 340.157 184.173 342.247 182.232 342.247 C 174.765 342.397 108.76 351.357 106.52 352.552 C 104.429 353.746 102.339 358.973 98.903 373.16 C 96.216 383.613 93.528 394.813 92.632 397.799 L 91.138 403.474 L 64.707 403.474 L 65.603 373.16 C 66.349 344.637 66.499 342.845 69.485 340.754 C 81.133 332.541 86.061 320.744 84.568 304.466 C 83.223 291.325 80.536 285.052 73.816 279.827 L 68.589 275.943 L 63.064 278.781 C 56.792 282.216 50.968 292.371 50.968 299.986 C 50.968 303.869 50.371 304.914 47.981 304.914 C 44.397 304.914 44.397 304.914 47.085 294.759 C 48.429 290.13 51.864 283.41 55.448 278.781 C 63.811 268.028 64.707 261.459 59.33 250.556 C 57.09 246.077 52.76 240.103 49.475 237.117 C 43.8 232.04 31.853 225.021 30.659 226.067 C 30.359 226.365 31.555 230.845 33.047 236.072 C 34.691 241.149 36.034 246.973 36.034 248.616 C 36.034 256.231 32.451 263.997 25.581 271.165 C 16.173 281.32 13.635 286.696 13.635 296.701 C 13.635 302.974 13.187 304.914 11.395 304.914 C 8.408 304.914 8.557 311.037 11.544 321.49 C 13.335 327.463 15.725 331.347 21.25 336.574 L 28.568 343.741 L 29.463 373.608 L 30.509 403.474 L 10.648 403.474 L 10.648 593.128 L 61.122 593.128 C 107.864 593.128 111.896 592.978 114.584 590.44 C 116.525 588.499 120.408 575.656 127.874 545.939 L 138.328 504.274 L 138.776 545.939 C 139.075 582.227 139.373 588.051 141.614 590.44 C 143.854 592.978 150.423 593.128 272.729 593.128 L 401.454 593.128 L 404.589 589.693 C 407.725 586.259 407.875 585.213 408.025 545.192 L 408.173 504.274 L 418.478 545.939 C 424.301 569.683 429.827 588.797 431.32 590.44 C 433.56 592.978 437.294 593.128 484.334 593.128 L 534.808 593.128 L 534.808 403.474 L 500.462 403.474 L 500.462 377.341 L 513.454 374.802 C 547.501 368.232 575.278 344.339 585.88 312.381 C 588.868 303.272 589.166 299.09 589.763 250.706 L 590.36 198.888 L 579.609 198.888 L 579.609 246.226 C 579.609 297.896 578.713 305.064 571.096 321.042 C 568.408 326.419 562.733 333.736 555.715 340.754 L 544.515 351.954 L 544.067 275.347 L 543.769 198.888 L 533.315 198.888 L 533.315 358.376 L 527.043 360.765 C 517.784 364.051 509.273 366.141 504.643 366.141 L 500.462 366.141 L 500.462 198.888 L 490.008 198.888 L 490.008 366.589 L 481.646 365.544 C 477.017 365.096 469.4 363.005 464.771 361.213 L 456.408 357.928 L 455.96 278.333 L 455.662 198.888 L 445.208 198.888 L 444.909 275.347 L 444.461 351.954 L 434.755 342.247 C 429.379 336.872 422.957 328.509 420.27 323.432 C 411.459 306.856 410.861 301.928 410.861 247.869 L 410.861 198.888 L 400.408 198.888 L 400.408 247.72 C 400.408 300.136 401.155 307.005 408.323 322.984 C 410.265 327.463 415.042 335.08 418.776 340.008 C 422.509 344.935 425.497 349.117 425.347 349.266 C 424.899 349.565 362.328 341.949 361.88 341.501 C 361.582 341.202 362.328 339.112 363.672 336.722 L 365.912 332.242 L 349.186 330.451 C 323.801 327.613 325.741 328.807 325.741 316.562 L 325.741 306.109 L 334.104 297 C 339.181 291.325 345.155 282.216 349.336 273.703 L 356.355 259.667 L 356.803 237.266 L 357.401 214.866 L 362.328 207.997 C 371.437 195.154 374.125 188.434 374.125 177.981 C 374.275 172.605 373.677 167.229 373.081 166.034 C 372.185 163.944 374.573 163.346 390.253 161.853 C 413.848 159.463 434.755 155.133 443.565 150.802 C 449.688 147.666 450.434 146.92 450.434 142.141 C 450.434 135.122 444.461 131.24 427.587 127.357 C 413.699 124.221 379.8 119.741 369.347 119.741 C 365.912 119.741 363.074 119.293 363.074 118.546 C 363.074 117.949 362.328 112.872 361.582 107.197 C 360.685 101.522 358.445 84.199 356.355 68.818 C 352.174 37.159 349.934 30.888 338.883 20.135 C 335.448 16.701 328.43 11.922 323.501 9.682 L 314.542 5.501 L 276.462 5.202 C 246.296 4.903 236.739 5.351 230.168 7.143 Z M 208.514 390.781 C 218.819 411.987 227.48 429.757 227.778 429.907 C 228.078 430.205 233.453 421.394 239.725 410.195 C 246.146 399.144 251.672 390.034 252.269 390.034 C 252.717 390.034 256.451 393.171 260.334 397.053 L 267.501 404.072 L 267.501 582.675 L 149.528 582.675 L 149.229 520.253 L 148.781 457.982 L 144.002 457.534 C 141.314 457.234 139.075 457.234 139.075 457.534 C 138.925 457.832 132.056 485.907 123.544 519.955 L 108.162 581.928 L 96.067 582.376 L 83.821 582.824 L 83.821 497.555 L 92.482 497.555 L 93.23 464.999 L 93.826 432.595 L 112.941 360.915 L 149.528 356.285 C 169.689 353.598 187.011 351.656 187.907 351.805 C 188.952 351.805 198.211 369.426 208.514 390.781 Z M 398.466 356.584 L 433.262 360.765 L 434.606 365.245 C 435.502 367.784 439.833 384.509 444.461 402.429 L 452.675 434.984 L 452.675 497.555 L 461.635 497.555 L 461.635 582.675 L 438.19 582.675 L 425.049 529.213 C 417.88 499.943 411.011 471.72 409.667 466.493 C 407.427 457.234 407.277 457.086 402.798 457.534 L 398.168 457.982 L 397.72 520.403 L 397.422 582.675 L 277.954 582.675 L 277.954 405.566 L 286.168 397.501 C 290.648 393.171 294.53 389.736 294.978 390.184 C 295.278 390.482 300.355 399.293 306.329 409.896 C 316.483 427.816 319.768 432.445 319.768 429.159 C 319.768 428.263 328.131 410.493 338.435 389.438 C 355.609 354.046 357.251 351.208 360.387 351.805 C 362.328 352.253 379.502 354.344 398.466 356.584 Z M 346.648 210.387 C 346.648 250.556 346.35 254.738 343.661 262.205 C 333.656 288.786 306.925 313.277 281.987 318.354 C 272.579 320.296 258.392 318.802 246.594 314.621 C 225.39 307.154 205.379 284.754 200.451 262.951 C 199.555 259.367 198.808 236.37 198.808 211.581 L 198.808 166.78 L 346.648 166.78 Z M 351.726 122.579 C 352.323 123.325 353.069 128.104 353.667 133.032 C 354.115 138.109 355.161 142.589 355.757 143.037 C 356.355 143.335 358.745 143.335 360.835 142.738 C 364.418 141.843 364.718 141.095 364.27 135.57 L 363.822 129.448 L 370.541 129.896 C 393.241 131.388 426.541 136.615 436.248 140.349 L 439.981 141.843 L 435.95 143.335 C 390.553 161.255 157.592 161.405 111.448 143.634 C 107.714 142.141 107.416 141.693 109.358 140.499 C 115.331 137.213 148.483 131.836 176.258 129.896 L 182.68 129.298 L 181.784 135.57 C 181.037 141.693 181.187 141.991 185.517 142.887 C 188.056 143.485 190.296 143.634 190.744 143.335 C 191.042 142.887 191.938 138.407 192.536 133.33 C 193.282 128.104 194.776 123.325 195.97 122.579 C 198.808 120.786 350.68 120.786 351.726 122.579 Z M 256.301 32.381 C 264.366 41.789 271.385 49.554 271.981 49.554 C 272.729 49.554 279.15 41.789 286.467 32.381 L 299.608 15.058 L 306.627 15.805 C 321.261 17.298 334.254 26.556 340.525 39.698 C 342.915 44.776 348.142 78.674 348.142 89.277 C 348.142 91.069 335.299 91.367 272.729 91.367 L 197.464 91.367 L 198.061 87.186 C 198.509 84.946 199.853 74.791 201.048 64.488 C 203.289 44.626 205.379 37.757 211.502 30.44 C 217.475 23.271 231.811 15.506 239.427 15.207 C 240.771 15.207 248.387 22.823 256.301 32.381 Z M 300.504 350.61 C 292.141 361.811 285.421 371.666 285.421 372.712 C 285.421 373.757 286.168 375.25 287.213 376.296 C 288.557 377.639 287.363 379.731 281.688 385.554 C 277.656 389.736 273.923 393.021 273.325 393.021 C 272.877 393.021 269.144 390.034 265.112 386.45 C 258.243 380.179 258.093 379.731 259.736 375.848 C 261.528 372.114 260.93 370.92 247.64 352.85 C 231.363 330.899 230.168 328.807 230.168 323.432 C 230.168 319.1 229.422 318.952 244.354 324.477 C 257.795 329.405 279.15 330.151 292.44 325.971 C 297.966 324.328 305.283 321.192 308.568 319.25 L 314.542 315.517 L 314.99 322.834 C 315.438 330.151 315.138 330.599 300.504 350.61 Z M 83.075 425.128 L 58.882 425.576 L 34.541 425.874 L 34.541 436.328 L 83.971 436.328 L 83.523 441.106 L 83.075 446.035 L 58.882 446.483 L 34.541 446.781 L 34.541 455.742 L 58.882 456.04 L 83.075 456.488 L 83.075 466.941 L 58.882 467.389 L 34.541 467.688 L 34.541 476.648 L 58.882 476.946 L 83.075 477.394 L 83.075 486.354 L 52.163 486.802 L 21.101 487.101 L 21.101 413.927 L 52.163 414.227 L 83.075 414.675 Z M 524.355 487.101 L 463.128 487.101 L 463.128 476.648 L 510.915 476.648 L 510.915 467.688 L 463.128 467.688 L 463.128 455.742 L 510.915 455.742 L 510.915 446.781 L 463.128 446.781 L 463.128 436.328 L 510.915 436.328 L 510.915 425.874 L 463.128 425.874 L 463.128 413.927 L 524.355 413.927 Z M 236.291 355.09 C 243.16 364.647 248.686 372.861 248.536 373.309 C 248.387 373.906 243.906 382.12 238.531 391.528 L 228.824 408.552 L 212.994 375.997 C 204.333 358.226 197.315 342.995 197.315 342.247 C 197.315 341.501 199.555 340.605 202.243 340.157 C 224.493 336.424 221.955 335.378 236.291 355.09 Z M 338.285 339.261 C 344.109 340.157 348.888 341.053 349.186 341.352 C 349.934 342.098 318.424 407.208 317.379 406.91 C 316.483 406.61 297.368 373.906 297.368 372.712 C 297.368 372.414 303.192 364.349 310.211 354.942 C 317.827 344.787 323.949 337.768 325.443 337.768 C 326.787 337.768 332.611 338.514 338.285 339.261 Z M 524.355 582.675 L 500.462 582.675 L 500.462 497.555 L 524.355 497.555 Z M 458.349 369.874 C 463.576 371.966 472.835 374.504 478.957 375.549 L 490.008 377.341 L 490.008 403.624 L 472.686 403.176 L 455.214 402.728 L 451.032 387.048 C 444.611 363.005 444.761 364.199 447 365.096 C 448.046 365.544 453.272 367.634 458.349 369.874 Z M 349.634 103.613 C 349.634 104.658 350.083 107.047 350.531 108.839 L 351.427 112.274 L 273.624 112.274 C 197.912 112.274 195.822 112.124 195.822 109.437 C 195.822 101.373 191.49 101.821 273.624 101.821 C 333.358 101.821 349.634 102.269 349.634 103.613 Z M 52.461 262.503 C 52.461 264.296 50.371 268.328 47.831 271.464 C 41.71 279.229 37.976 286.546 36.781 293.715 C 34.989 304.466 34.691 304.914 29.165 304.914 L 24.088 304.914 L 24.088 296.551 C 24.088 288.786 24.386 287.89 31.405 280.573 C 39.47 271.912 44.098 263.698 45.741 254.888 L 46.787 248.914 L 49.623 254.141 C 51.117 256.978 52.312 260.861 52.461 262.503 Z M 490.008 582.675 L 472.088 582.675 L 472.088 497.555 L 490.008 497.555 Z M 33.047 527.72 C 33.047 544.445 33.495 563.56 34.093 570.28 L 34.989 582.675 L 21.101 582.675 L 21.101 497.555 L 33.047 497.555 Z M 74.862 316.413 C 74.862 316.861 73.218 320.146 71.128 323.73 C 62.467 338.365 43.053 341.799 30.061 330.899 C 25.581 327.015 21.101 320.146 21.101 316.861 C 21.101 315.965 30.211 315.368 47.981 315.368 C 62.765 315.368 74.862 315.816 74.862 316.413 Z M 249.362 14.47 L 291.768 14.397 L 272.433 39.956 Z M 73.368 582.675 L 61.421 582.675 L 61.421 560.574 C 61.421 548.328 61.869 529.213 62.467 518.013 L 63.363 497.555 L 73.368 497.555 Z M 51.715 538.173 C 51.117 560.574 50.519 579.837 50.221 580.733 C 49.773 581.779 48.579 582.675 47.383 582.675 C 44.397 582.675 43.949 576.402 43.65 540.114 C 43.501 522.792 43.053 506.216 42.456 503.08 L 41.56 497.555 L 52.611 497.555 Z M 55.448 371.218 C 55.448 383.762 55 396.307 54.552 398.845 C 53.656 403.176 53.208 403.474 47.085 403.474 L 40.514 403.474 L 40.514 394.067 C 40.514 388.84 40.066 376.296 39.47 366.44 L 38.573 348.221 L 55.448 348.221 Z M 357.136 167.195 C 376.818 160.94 362.327 201.731 357.343 203.668 Z M 188.446 203.364 C 183.463 201.427 168.971 160.637 188.653 166.892 Z M 58.201 304.216 C 58.869 276.813 76.493 276.48 76.917 304.429 Z" style="fill: rgb(27, 30, 35);"/>
  <path d="M 219.863 177.085 C 219.267 179.624 218.819 181.864 218.967 182.162 C 219.565 182.76 259.288 192.915 261.678 192.915 C 263.768 192.915 266.755 185.746 265.262 184.253 C 265.112 183.954 255.107 181.266 243.01 178.13 L 221.209 172.455 L 219.863 177.085 Z" style="fill: rgb(27, 30, 35);"/>
  <path d="M 299.31 178.429 C 289.305 181.116 280.642 183.656 280.194 184.253 C 279.598 184.85 279.598 187.24 280.194 189.629 L 281.09 193.959 L 302.893 188.285 C 314.84 185.149 324.845 182.312 325.293 182.012 C 325.592 181.564 325.443 179.624 324.845 177.383 C 323.651 172.455 322.457 172.455 299.31 178.429 Z" style="fill: rgb(27, 30, 35);"/>
  <path d="M 254.061 226.515 C 254.061 242.791 256.003 248.317 263.022 251.902 C 272.281 256.679 284.824 253.544 289.155 245.181 C 290.648 242.195 291.395 236.37 291.395 226.515 L 291.395 212.327 L 286.168 212.327 L 281.09 212.327 L 280.642 226.813 C 280.194 240.701 280.046 241.447 276.312 243.539 C 272.729 245.479 271.981 245.479 268.397 243.239 C 264.664 240.701 264.514 240.103 264.514 226.515 L 264.514 212.327 L 259.288 212.327 L 254.061 212.327 L 254.061 226.515 Z" style="fill: rgb(27, 30, 35);"/>
  <path d="M 248.088 274.301 L 248.088 279.527 L 271.235 279.527 L 294.382 279.527 L 294.382 274.301 L 294.382 269.074 L 271.235 269.074 L 248.088 269.074 L 248.088 274.301 Z" style="fill: rgb(27, 30, 35);"/>
  <path d="M 70.68 238.013 C 67.693 241.447 67.693 241.447 70.53 245.031 C 73.816 249.064 74.264 255.186 71.576 260.861 C 69.933 264.445 70.232 265.192 73.368 267.73 C 75.458 269.224 77.549 270.568 78.146 270.568 C 78.594 270.568 80.237 267.58 81.581 263.848 C 84.867 255.485 83.971 245.629 79.491 239.357 C 75.458 233.832 74.862 233.682 70.68 238.013 Z" style="fill: rgb(27, 30, 35);"/>
  <ellipse transform="matrix(-0.692538, 0.72138, -0.721381, -0.692536, 460.216272, 144.572985)" cx="145.704" cy="70.442" rx="5.177" ry="5.177" style="fill: rgb(27, 30, 35);"/>
  <ellipse transform="matrix(-0.692546, 0.721372, -0.72138, -0.692542, 443.720068, 385.423565)" cx="145.707" cy="70.442" rx="5.178" ry="5.178" style="fill: rgb(27, 30, 35);"/>
  <ellipse transform="matrix(-0.692552, 0.721366, -0.721379, -0.692541, 444.104885, 445.091587)" cx="145.706" cy="70.442" rx="5.178" ry="5.178" style="fill: rgb(27, 30, 35);"/>
</svg>